<svg xmlns="http://www.w3.org/2000/svg" viewBox="0 0 64 64" role="img" aria-label="FlowPOS">
  <rect width="64" height="64" rx="14" fill="#f97316"/>
  <path fill="#fff7ed" d="M18 14h28a4 4 0 0 1 4 4v20H14V18a4 4 0 0 1 4-4Z"/>
  <path fill="#0f172a" d="M20 20h24v10H20z"/>
  <path fill="#fff7ed" d="M12 38h40a4 4 0 0 1 4 4v4a4 4 0 0 1-4 4H12a4 4 0 0 1-4-4v-4a4 4 0 0 1 4-4Z"/>
  <circle cx="20" cy="44" r="3" fill="#f97316"/>
  <circle cx="30" cy="44" r="3" fill="#f97316"/>
  <circle cx="40" cy="44" r="3" fill="#f97316"/>
  <path fill="#0f172a" d="M46 41h6v6h-6z"/>
</svg>
